<?xml version="1.0" encoding="UTF-8"?>
<svg xmlns="http://www.w3.org/2000/svg" xmlns:xlink="http://www.w3.org/1999/xlink" width="7pt" height="11pt" viewBox="0 0 7 11" version="1.1">
<g id="surface1">
<path style=" stroke:none;fill-rule:evenodd;fill:rgb(100%,47.45098%,73.72549%);fill-opacity:1;" d="M 0.167969 2.78125 C 0.171875 2.476562 0.855469 0.03125 3.261719 0.109375 C 5.675781 0.1875 6.25 2.5 6.242188 2.804688 C 6.238281 3.105469 4.242188 1.929688 3.234375 1.925781 C 2.222656 1.921875 0.164062 3.082031 0.167969 2.78125 Z M 0.167969 2.78125 "/>
<path style="fill:none;stroke-width:0.948307;stroke-linecap:butt;stroke-linejoin:round;stroke:rgb(0%,0%,0%);stroke-opacity:1;stroke-miterlimit:4;" d="M 109.649316 366.823932 C 109.664405 365.508812 112.305033 354.954127 121.600042 355.291337 C 130.910141 355.628548 133.143357 365.609975 133.113178 366.925095 C 133.098089 368.223355 125.387456 363.148339 121.494417 363.131478 C 117.586288 363.114618 109.634226 368.122192 109.649316 366.823932 " transform="matrix(0.258875,0,0,0.23168,-28.217551,-82.204628)"/>
<path style=" stroke:none;fill-rule:evenodd;fill:rgb(100%,47.45098%,73.72549%);fill-opacity:1;" d="M 4.988281 0.679688 C 5.214844 0.902344 6.8125 2.128906 6.085938 3.632812 C 5.363281 5.140625 2.207031 9.441406 1.367188 10.683594 C 0.992188 10.007812 0.878906 9.957031 0.125 8.820312 C 0.960938 7.519531 3.917969 3.632812 4.730469 2.285156 C 5.535156 0.945312 4.726562 0.5625 4.988281 0.679688 Z M 4.988281 0.679688 "/>
<path style="fill:none;stroke-width:0.948307;stroke-linecap:butt;stroke-linejoin:round;stroke:rgb(0%,0%,0%);stroke-opacity:1;stroke-miterlimit:4;" d="M 128.269513 357.736112 C 129.144692 358.714022 135.316216 364.008225 132.509606 370.499525 C 129.718086 377.007685 117.525931 395.571116 114.281731 400.932761 C 112.833158 398.015892 112.395568 397.796705 109.483333 392.890294 C 112.712444 387.275741 124.135045 370.499525 127.273619 364.682646 C 130.382015 358.899488 127.25853 357.247157 128.269513 357.736112 " transform="matrix(0.258875,0,0,0.23168,-28.217551,-82.204628)"/>
<path style=" stroke:none;fill-rule:evenodd;fill:rgb(100%,47.45098%,73.72549%);fill-opacity:1;" d="M 1.429688 0.664062 C 1.203125 0.886719 -0.398438 2.113281 0.328125 3.617188 C 1.054688 5.121094 4.21875 9.421875 5.054688 10.667969 C 5.433594 9.992188 5.546875 9.941406 6.300781 8.804688 C 5.460938 7.503906 2.496094 3.613281 1.691406 2.273438 C 0.882812 0.929688 1.699219 0.542969 1.429688 0.664062 Z M 1.429688 0.664062 "/>
<path style="fill:none;stroke-width:0.948307;stroke-linecap:butt;stroke-linejoin:round;stroke:rgb(0%,0%,0%);stroke-opacity:1;stroke-miterlimit:4;" d="M 114.52316 357.685531 C 113.64798 358.64658 107.461367 363.940783 110.267977 370.432083 C 113.074587 376.923383 125.296921 395.486814 128.526031 400.865319 C 129.989693 397.94845 130.427283 397.729263 133.339518 392.822852 C 130.095318 387.208299 118.642539 370.415222 115.534143 364.632065 C 112.410658 358.832046 115.564322 357.162855 114.52316 357.685531 " transform="matrix(0.258875,0,0,0.23168,-28.217551,-82.204628)"/>
</g>
</svg>
